<svg viewBox="0 0 73 32" xmlns="http://www.w3.org/2000/svg"><g fill="none" fill-rule="evenodd"><path d="M11.973 7.53c0 .478.323 2.148 2.29 2.157 1.968-.009 2.29-1.679 2.29-2.157V4.155c0-.478-.322-2.15-2.29-2.158-1.967.007-2.29 1.68-2.29 2.158V7.53zm-2.31-3.273c0-.21.023-1.253.59-2.24C10.797 1.074 11.926.008 14.25 0V0H14.275v.001C16.6.01 17.727 1.075 18.27 2.016c.57.988.593 2.032.593 2.241v3.187c0 .211-.023 1.254-.593 2.243-.542.942-1.67 2.007-3.994 2.015H14.25c-2.323-.008-3.452-1.073-3.996-2.015-.567-.989-.59-2.032-.59-2.243V4.257zM8.73 9.407a.155.155 0 0 0-.09-.141v-.002l-.005-.003c-.003 0-.005-.001-.006-.003l-1.743-.87h-.002a.15.15 0 0 0-.072-.02.16.16 0 0 0-.141.086h-.002c-.002.002-.003.007-.007.011v.004c-.278.592-.862 1.213-2.061 1.218C2.633 9.677 2.31 8.008 2.31 7.53V4.155c0-.478.323-2.15 2.29-2.158 1.216.004 1.801.643 2.073 1.244a.16.16 0 0 0 .15.104.164.164 0 0 0 .073-.02h.001l1.738-.903V2.42a.16.16 0 0 0 .085-.14.219.219 0 0 0-.012-.065 3.384 3.384 0 0 0-.1-.198C8.064 1.074 6.935.009 4.611 0h-.026C2.263.009 1.135 1.074.593 2.017.023 3.005 0 4.047 0 4.257v3.187c0 .212.023 1.254.593 2.243.542.942 1.67 2.007 3.993 2.015h.026c2.324-.008 3.453-1.073 3.995-2.015.038-.07.07-.138.106-.207l-.002-.001a.166.166 0 0 0 .019-.072M29.455 11.317V.366a.161.161 0 0 0-.16-.16c.002 0 .002-.001.002-.002H27.31v.001a.161.161 0 0 0-.163.161l.002.012v3.873h-.006v3.288c0 .479-.32 2.15-2.288 2.156-1.97-.006-2.292-1.677-2.292-2.156V.386h.003a.164.164 0 0 0-.164-.163h-.005V.222l-1.985.003h-.004a.16.16 0 0 0-.16.158h-.002v7.062c0 .211.021 1.254.534 2.243.489.942 1.506 2.007 3.597 2.015h.024c1.38-.004 2.293-.567 2.895-1.155v.781h.001a.162.162 0 0 0 .16.158l.009-.002v.002h1.83a.163.163 0 0 0 .161-.162l-.002-.007" fill="#560001"/><path d="M48.108 7.755c0 .45-.313 2.021-2.23 2.028-1.916-.007-2.229-1.579-2.229-2.028v-.183c0-.45.313-2.02 2.23-2.026 1.916.006 2.23 1.577 2.23 2.026v.183zm2.14-3.577c-.002-.9-.45-3.003-2.495-3.839-2.08-.85-4.853.177-5.542.472a.158.158 0 0 0-.118.152c0 .027.01.052.02.074-.002 0-.002.002-.003.002l.56 1.59c0-.002.003-.002.005-.002a.156.156 0 0 0 .207.091h.003c.76-.392 2.824-1.082 4.085-.508 1.226.558 1.12 1.859 1.127 1.998v.32a4.303 4.303 0 0 0-2.595-.848h-.022c-2.094.007-3.108 1.014-3.599 1.905-.512.933-.534 1.918-.534 2.117v.005c0 .196.022 1.182.534 2.116.491.89 1.505 1.896 3.6 1.905h.02c1.22-.005 2.07-.442 2.667-.905v.535l-.002.004.002.005v.002a.161.161 0 0 0 .161.155l.01-.002v.004h1.742v-.004l.005.002c.087 0 .156-.07.162-.155V5.418h.002V4.254c0-.026 0-.051-.002-.076z" fill="#EB991B"/><path d="M60.95 4.281c0-.21-.02-1.253-.532-2.241-.491-.943-1.506-2.007-3.598-2.014V.023c-.005 0-.007.003-.015.003 0 0-.003-.003-.01-.003v.003c-1.375.003-2.282.562-2.883 1.144V.406h-.002c.002-.003.002-.006.002-.01a.161.161 0 0 0-.157-.16l.002-.002h-1.85v.002a.16.16 0 0 0-.157.16l.002.01h-.002v10.962h.002a.16.16 0 0 0 .159.149l.01-.003v.004h1.976v-.001a.16.16 0 0 0 .159-.15h.001V4.07c.048-.585.453-2.032 2.285-2.04 1.97.008 2.29 1.68 2.29 2.158v7.156h.004c0 .003-.004.005-.004.009 0 .09.074.16.162.16H60.796a.156.156 0 0 0 .153-.16V4.28z" fill="#94BA2F"/><path d="M37.857 7.54c0 .478-.321 2.15-2.291 2.155-1.97-.005-2.29-1.677-2.29-2.155V4.164c0-.479.32-2.149 2.29-2.156 1.97.007 2.291 1.677 2.291 2.156V7.54zm1.784-5.523C39.151 1.075 38.136.009 36.043 0h-.022c-1.382.005-2.294.568-2.894 1.155V.368h-.002c0-.002.002-.002.002-.002 0-.09-.074-.16-.163-.16l-.009.002c0-.002 0-.003.002-.004h-1.822c0 .001.003.002.003.004-.004 0-.007-.003-.011-.003a.161.161 0 0 0-.163.161s.002 0 .002.002h-.002V15.26h.002a.162.162 0 0 0 .161.156H33.135v-.005a.152.152 0 0 0 .135-.146l.003-.001v-.008l.001-.001-.001-.002v-4.57c.601.52 1.473 1.014 2.747 1.019h.023c2.093-.008 3.109-1.073 3.598-2.015.513-.989.534-2.031.534-2.243V4.257c0-.21-.021-1.252-.534-2.24z" fill="#D83128"/><path d="M69.262 4.212c0 .439-.321 2.035-2.29 2.042-1.97-.007-2.29-1.603-2.29-2.042v-.143c0-.44.32-2.038 2.29-2.044 1.969.006 2.29 1.604 2.29 2.044v.143zM72.69.088V.085c-1.186-.032-1.954.456-2.448.994-.666-.577-1.69-1.042-3.256-1.047V.03h-.027v.002c-2.323.008-3.451 1.021-3.997 1.92-.566.944-.591 1.938-.591 2.138v.108c0 .202.025 1.196.594 2.136.242.404.604.828 1.138 1.177-.875.502-1.647 1.388-1.647 2.988v.842a.16.16 0 0 0 .155.16v.003h6.962v-.002c.627 0 1.138.508 1.138 1.134 0 .659-.439.97-1.192 1.25-.102.039-.176.144-.11.28.042.083.62 1.275.654 1.348.05.1.147.123.259.092 1.378-.389 2.291-1.551 2.291-2.97a3.04 3.04 0 0 0-3.04-3.033H64.666c.253-1.384 1.871-1.358 2.064-1.35l-.001-.004c.077.003.15.007.23.007H66.988c2.322-.007 3.45-1.022 3.993-1.922.568-.94.593-1.934.593-2.136V4.09c0-.17-.02-.906-.37-1.7.305-.212.779-.406 1.473-.369l.006.002c.086 0 .157-.069.161-.151V.247a.16.16 0 0 0-.152-.16z" fill="#4EA4E1"/><g transform="translate(0 17)"><rect fill="#346AFF" width="73" height="15" rx="3"/><path d="M7.014 9.1c.068-.387-.122-.683-.572-.888L5.5 7.836c-1.094-.488-1.613-1.16-1.558-2.017.023-.397.153-.748.391-1.054.238-.306.571-.546 1.001-.72.43-.175.894-.259 1.392-.252.686.013 1.241.217 1.665.613.423.395.631.925.625 1.59H7.59c.016-.323-.055-.574-.213-.753-.157-.179-.402-.272-.734-.278a1.481 1.481 0 0 0-.85.222.911.911 0 0 0-.43.637c-.062.355.176.637.713.845l.645.244.37.171c.961.475 1.41 1.143 1.348 2.002-.029.42-.163.782-.402 1.086a2.27 2.27 0 0 1-.977.701c-.412.163-.865.24-1.36.23a3.046 3.046 0 0 1-1.347-.318 2.093 2.093 0 0 1-.899-.854 2.213 2.213 0 0 1-.268-1.172l1.43.005c-.045.771.334 1.163 1.138 1.176.348 0 .635-.076.86-.23a.894.894 0 0 0 .4-.61zm8.584-5.21l-.801 4.688c-.11.785-.436 1.405-.977 1.86-.54.456-1.21.678-2.011.665-.502-.01-.937-.12-1.307-.33a1.923 1.923 0 0 1-.817-.889c-.176-.382-.236-.816-.181-1.301l.796-4.692h1.43l-.795 4.697a2.087 2.087 0 0 0-.005.513c.065.527.379.8.942.82.404.013.734-.098.991-.332.257-.235.423-.57.498-1.006l.801-4.692h1.436zm1.82 4.605L16.98 11h-1.43l1.235-7.11 2.49.006c.769 0 1.372.213 1.812.64.44.426.631.982.576 1.67-.052.696-.342 1.252-.871 1.669-.53.417-1.204.625-2.024.625l-1.348-.005zm.201-1.186l1.192.01c.384 0 .703-.1.957-.298.253-.2.405-.468.454-.806.049-.339-.006-.609-.164-.81-.158-.203-.391-.31-.7-.323l-1.348-.005-.39 2.232zm6.104 1.186L23.283 11h-1.43l1.235-7.11 2.49.006c.768 0 1.372.213 1.812.64.44.426.631.982.576 1.67-.052.696-.343 1.252-.872 1.669-.529.417-1.203.625-2.024.625l-1.347-.005zm.2-1.186l1.191.01c.384 0 .703-.1.957-.298.254-.2.406-.468.454-.806.05-.339-.005-.609-.163-.81-.158-.203-.392-.31-.7-.323l-1.349-.005-.39 2.232zm5.869 2.514h3.018L32.604 11h-4.448l1.236-7.11h1.43l-1.03 5.933zM34.982 11h-1.43l1.23-7.11h1.43L34.983 11zm6.045-3.081h-2.724l-.332 1.904h3.203L40.969 11h-4.634l1.235-7.11h4.624l-.21 1.187h-3.188l-.298 1.694h2.734l-.205 1.148zm3.858.478h-1.162L43.269 11h-1.431l1.235-7.11 2.354.006c.788 0 1.394.185 1.819.556.424.371.612.887.564 1.548-.069.977-.59 1.655-1.563 2.036l1.001 2.886V11h-1.523l-.84-2.603zm-.957-1.186l1.064.01c.378-.007.69-.109.935-.305.246-.197.393-.465.442-.804.046-.315-.005-.563-.151-.742-.147-.179-.38-.275-.698-.288l-1.221-.005-.371 2.134zM56.168 11h-1.43l.528-3.047h-2.76L51.976 11h-1.431l1.235-7.11h1.431l-.503 2.881h2.764l.498-2.88h1.43L56.17 11zm7.765-7.11l-.801 4.688c-.11.785-.436 1.405-.977 1.86-.54.456-1.21.678-2.011.665-.502-.01-.937-.12-1.307-.33a1.923 1.923 0 0 1-.817-.889c-.176-.382-.236-.816-.181-1.301l.796-4.692h1.43l-.795 4.697a2.087 2.087 0 0 0-.005.513c.065.527.379.8.942.82.404.013.734-.098.991-.332.257-.235.423-.57.498-1.006l.801-4.692h1.436zm-.05 7.11l1.236-7.11 2.217.006c.824.003 1.442.17 1.855.502.414.332.601.8.562 1.402-.046.72-.46 1.245-1.245 1.577.283.098.503.28.659.55.156.268.223.584.2.949-.045.67-.308 1.192-.788 1.565-.48.373-1.136.559-1.966.559h-2.73zm1.973-3.096l-.336 1.92 1.127.004c.352 0 .647-.087.884-.261.238-.174.38-.41.425-.706.046-.293.006-.521-.12-.686-.125-.164-.336-.253-.632-.266l-1.348-.005zm.176-1.035l.972.01c.361-.007.657-.091.886-.254a.984.984 0 0 0 .413-.679c.081-.573-.22-.86-.904-.864l-1.054-.005-.313 1.792z" fill="#FFF"/></g></g></svg>